<?xml version="1.0" encoding="UTF-8" standalone="no"?>
<svg
   viewBox="0 0 16 16"
   xml:space="preserve"
   version="1.1"
   id="svg209"
   sodipodi:docname="normalize_fcurves.svg"
   width="16"
   height="16"
   inkscape:version="1.2.1 (9c6d41e410, 2022-07-14)"
   xmlns:inkscape="http://www.inkscape.org/namespaces/inkscape"
   xmlns:sodipodi="http://sodipodi.sourceforge.net/DTD/sodipodi-0.dtd"
   xmlns="http://www.w3.org/2000/svg"
   xmlns:svg="http://www.w3.org/2000/svg"><defs
   id="defs213" /><sodipodi:namedview
   id="namedview211"
   pagecolor="#ffffff"
   bordercolor="#000000"
   borderopacity="0.25"
   inkscape:showpageshadow="2"
   inkscape:pageopacity="0.0"
   inkscape:pagecheckerboard="0"
   inkscape:deskcolor="#d1d1d1"
   showgrid="false"
   inkscape:zoom="31.006632"
   inkscape:cx="10.417126"
   inkscape:cy="11.255656"
   inkscape:window-width="1920"
   inkscape:window-height="1057"
   inkscape:window-x="-8"
   inkscape:window-y="-8"
   inkscape:window-maximized="1"
   inkscape:current-layer="svg209" />
    <g
   fill="#ffffff"
   id="g207"
   transform="translate(-1.995935,-1.996)">
        <path
   fill="#ffffff"
   d="m 447.5,200 a 0.5,0.5 0 0 0 -0.5,0.5 v 4 a 0.5,0.5 0 1 0 1,0 V 201 h 3.5 a 0.5,0.5 0 1 0 0,-1 z m 9.008,0 a 0.5,0.5 0 1 0 0,1 h 3.5 v 3.5 a 0.5,0.5 0 1 0 1,0 v -4 a 0.5,0.5 0 0 0 -0.5,-0.5 z m -9.016,9 A 0.5,0.5 0 0 0 447,209.508 v 4 a 0.5,0.5 0 0 0 0.5,0.5 h 4 a 0.5,0.5 0 1 0 0,-1 H 448 v -3.5 A 0.5,0.5 0 0 0 447.492,209 Z m 13.008,0 a 0.5,0.5 0 0 0 -0.492,0.508 v 3.5 h -3.5 a 0.5,0.5 0 1 0 0,1 h 4 a 0.5,0.5 0 0 0 0.5,-0.5 v -4 A 0.5,0.5 0 0 0 460.5,209 Z"
   transform="translate(-444.004,-197.004)"
   id="path203" />
        <path
   fill="#ffffff"
   d="m 449.5,203 a 0.5,0.5 0 1 0 0,1 h 1 c 0.392,0 0.749,0.274 1.137,0.867 0.388,0.593 0.744,1.446 1.086,2.317 0.342,0.87 0.67,1.756 1.068,2.466 0.199,0.356 0.413,0.67 0.686,0.918 0.272,0.249 0.627,0.432 1.023,0.432 0.625,0 1.133,-0.276 1.447,-0.646 0.314,-0.37 0.473,-0.798 0.616,-1.178 0.142,-0.38 0.272,-0.718 0.414,-0.91 0.141,-0.193 0.228,-0.266 0.523,-0.266 a 0.5,0.5 0 1 0 0,-1 c -0.58,0 -1.056,0.302 -1.328,0.672 -0.272,0.37 -0.409,0.783 -0.547,1.152 -0.138,0.37 -0.277,0.693 -0.44,0.885 -0.162,0.192 -0.31,0.291 -0.685,0.291 -0.104,0 -0.202,-0.035 -0.35,-0.17 -0.147,-0.135 -0.32,-0.367 -0.488,-0.668 -0.337,-0.602 -0.664,-1.466 -1.01,-2.346 -0.345,-0.88 -0.708,-1.776 -1.18,-2.496 -0.47,-0.72 -1.114,-1.32 -1.972,-1.32 z"
   transform="translate(-444.004,-197.004)"
   id="path205" />
    </g>
</svg>
